<svg width="24" height="24" viewBox="0 0 24 24" fill="none" xmlns="http://www.w3.org/2000/svg">
<path d="M23.3333 8.27054V21C23.3333 22.2892 22.2892 23.3334 21 23.3334H4.66668C3.37751 23.3334 2.33334 22.2892 2.33334 21V8.27054C2.33334 7.95554 2.39751 7.64287 2.52118 7.35354L4.06118 3.74971C4.42868 2.89104 5.27218 2.33337 6.20668 2.33337H19.46C20.3945 2.33337 21.238 2.89104 21.6055 3.74971L23.1455 7.35354C23.2692 7.64404 23.3333 7.95554 23.3333 8.27054Z" stroke="#292929" stroke-width="1.2" stroke-linecap="round" stroke-linejoin="round"/>
<path d="M21 5.93717V18.6667C21 19.9558 19.9558 21 18.6667 21H2.33333C1.04417 21 0 19.9558 0 18.6667V5.93717C0 5.62217 0.0641667 5.3095 0.187833 5.02017L1.72783 1.41633C2.09533 0.557667 2.93883 0 3.87333 0H17.1267C18.0612 0 18.9047 0.557667 19.2722 1.41633L20.8122 5.02017C20.9358 5.31067 21 5.62217 21 5.93717Z" fill="#FBE8BB"/>
<path d="M15.1666 2.33325L16.3333 8.16659V11.9291C16.3333 12.4284 15.8841 12.8333 15.3299 12.8333H10.3366C9.78242 12.8333 9.33325 12.4284 9.33325 11.9291V8.16659L10.4999 2.33325" fill="white"/>
<path d="M15.1666 2.33325L16.3333 8.16659V11.9291C16.3333 12.4284 15.8841 12.8333 15.3299 12.8333H10.3366C9.78242 12.8333 9.33325 12.4284 9.33325 11.9291V8.16659L10.4999 2.33325" stroke="#292929" stroke-width="1.2" stroke-linecap="round" stroke-linejoin="round"/>
<path d="M23.3333 8.27054V21C23.3333 22.2892 22.2892 23.3334 21 23.3334H4.66668C3.37751 23.3334 2.33334 22.2892 2.33334 21V8.27054C2.33334 7.95554 2.39751 7.64287 2.52118 7.35354L4.06118 3.74971C4.42868 2.89104 5.27218 2.33337 6.20668 2.33337H19.46C20.3945 2.33337 21.238 2.89104 21.6055 3.74971L23.1455 7.35354C23.2692 7.64404 23.3333 7.95554 23.3333 8.27054Z" stroke="#292929" stroke-width="1.2" stroke-linecap="round" stroke-linejoin="round"/>
<path d="M2.33334 8.16663H23.3217" stroke="#292929" stroke-width="1.2" stroke-linecap="round" stroke-linejoin="round"/>
<path d="M5.83334 18.6666H8.16668" stroke="#FD9339" stroke-width="1.2" stroke-linecap="round" stroke-linejoin="round"/>
</svg>
