<svg width="34" height="34" viewBox="0 0 34 34" fill="none" xmlns="http://www.w3.org/2000/svg">
<path d="M28.658 10.597C25.2242 7.45402 21.8225 4.31102 18.3566 1.20009C17.8752 0.783166 17.2655 0.366237 16.6558 0.270023C13.3182 -0.403477 10.2695 0.109666 7.76636 2.64331C7.47754 2.89988 7.25289 3.22059 7.06034 3.50924C6.86779 3.76581 6.73943 4.08652 6.51479 4.47138C7.02825 4.63174 7.44544 4.79209 7.86264 4.95245C11.6495 6.26738 15.4363 7.58231 19.2231 8.86516C19.897 9.08966 20.3463 9.60281 20.7956 10.2122C21.0202 10.5008 21.7904 10.7574 22.1434 10.6932C23.1062 10.4687 23.8443 10.5008 24.7429 10.8215C26.7967 11.5271 28.8185 12.2327 30.9686 12.7779C30.1984 12.0402 29.4282 11.3026 28.658 10.597ZM16.8483 3.92617C16.6558 4.50345 15.5325 4.63174 14.3772 4.21481C13.2219 3.79788 12.4517 2.99609 12.6443 2.41881C12.8368 1.84152 13.9601 1.71324 15.1154 2.13017C16.2707 2.54709 17.0409 3.34888 16.8483 3.92617ZM23.6196 8.41617C23.4592 8.86517 22.6569 9.02552 21.8546 8.73688C21.0523 8.44824 20.5388 7.83888 20.6993 7.38988C20.8598 6.94088 21.6621 6.78052 22.4643 7.06917C23.2666 7.32574 23.7801 7.93509 23.6196 8.41617Z" fill="#FD9339"/>
<path d="M32.7008 15.1514C29.7805 14.1251 26.8601 13.1309 23.9398 12.1046C23.298 11.8801 22.8487 12.0726 22.1427 12.265C21.3404 12.4895 20.4097 12.1688 19.8321 11.5594C19.5432 11.2387 19.2865 10.5331 18.9014 10.3728C14.8258 8.92957 10.718 7.51843 6.61029 6.10729C6.41774 6.04315 6.22519 6.01108 5.96845 5.979C5.74381 6.6525 5.51917 7.29393 5.29453 7.96743C7.25212 9.85965 6.89911 13.0668 3.30484 13.7403C2.85556 15.0873 2.37418 16.4664 1.9249 17.8775C1.34725 19.6414 0.737508 21.4054 0.159858 23.1693C-0.128968 24.0994 -0.064784 24.2597 0.833783 24.6125C1.57189 24.9011 2.34209 25.1256 3.0802 25.3822C7.38049 26.8575 11.6808 28.3649 15.9811 29.8401C16.3341 29.9684 16.6871 30.0967 16.9759 30.1929C19.9604 28.0121 21.9501 28.7176 22.7524 32.1814C24.004 32.6304 25.3518 33.0794 26.6676 33.5284C27.2452 33.7208 27.6303 33.5284 27.8229 32.919C28.1438 31.8927 28.5289 30.8344 28.8819 29.7439C27.4378 28.8139 26.5071 27.5951 27.0848 25.8312C27.6624 24.0673 29.1066 23.5862 30.8074 23.7786C31.7381 21.0205 32.6366 18.2944 33.5673 15.5042C33.2785 15.4401 32.9897 15.2797 32.7008 15.1514ZM6.48192 22.7524C6.41774 22.9127 6.32146 23.0731 6.1931 23.2014C5.808 23.5862 5.19825 23.7786 4.65269 23.6183C3.97877 23.4259 3.56158 22.6882 3.62576 21.9826C3.62576 21.8864 3.65785 21.7902 3.68994 21.694C3.72204 21.5336 3.81831 21.4054 3.94668 21.2771C3.94668 21.245 3.97877 21.245 3.97877 21.2129C4.17132 21.0205 4.39596 20.8922 4.65269 20.796C4.68479 20.796 4.74897 20.7639 4.78106 20.7639C5.06989 20.6998 5.35871 20.6998 5.61545 20.796C5.808 20.8601 5.96845 20.9564 6.09682 21.1167C6.161 21.1809 6.22519 21.245 6.28937 21.3412C6.44983 21.5978 6.5461 21.8864 6.5782 22.1751C6.5782 22.3675 6.5461 22.5599 6.48192 22.7524ZM16.0132 17.6851C15.6281 17.9416 15.1788 18.102 14.6974 18.1341C14.6653 18.1341 14.6332 18.1341 14.6332 18.1341C14.4407 18.1341 14.2481 18.1341 14.0235 18.102C13.8309 18.0699 13.6063 18.0379 13.4137 17.9416C13.2212 17.8775 13.0607 17.7813 12.9003 17.6851C12.098 17.204 11.5845 16.306 11.4882 15.3439C11.4561 14.959 11.4882 14.5741 11.6166 14.2214C11.745 13.8686 11.9054 13.5799 12.098 13.2913C12.1301 13.2271 12.1622 13.163 12.1942 13.1309C12.3547 12.9385 12.5793 12.7461 12.7719 12.6178C12.9324 12.4895 13.1249 12.3933 13.2854 12.3291C13.9272 12.0726 14.6332 12.0084 15.3713 12.265C16.5266 12.6819 17.2647 13.7082 17.3289 14.8628C17.361 15.2476 17.2968 15.6646 17.1685 16.0494C17.1043 16.2419 17.008 16.4343 16.9117 16.6267C16.7192 17.1078 16.3983 17.4285 16.0132 17.6851ZM18.6768 25.7671C17.6177 25.7671 16.7513 24.9011 16.7513 23.8428C16.7513 22.7844 17.6177 21.9185 18.6768 21.9185C19.7358 21.9185 20.6023 22.7844 20.6023 23.8428C20.6023 24.9011 19.7358 25.7671 18.6768 25.7671ZM26.9564 19.4169C26.8601 19.7697 26.6355 20.0584 26.3146 20.2508C26.2504 20.2829 26.1862 20.347 26.0899 20.3791C25.769 20.5074 25.416 20.5715 25.0951 20.4753C24.4212 20.2508 24.004 19.5773 24.0682 18.8717C24.0682 18.8396 24.0682 18.8396 24.0682 18.8076C24.0682 18.7434 24.1003 18.6472 24.1324 18.5831C24.1965 18.3906 24.2928 18.1982 24.4212 18.0699C24.6137 17.8454 24.8705 17.6851 25.1593 17.6209C25.4481 17.5568 25.7369 17.5568 26.0258 17.653C26.2183 17.7171 26.3788 17.8134 26.5071 17.9416C26.8601 18.2624 27.0527 18.7114 27.0206 19.1924C26.9885 19.2245 26.9885 19.3207 26.9564 19.4169Z" fill="#FD9339"/>
</svg>
